<svg width="35" height="35" viewBox="0 0 35 35" fill="none" xmlns="http://www.w3.org/2000/svg">
<path d="M17.5 32.8125C25.9569 32.8125 32.8125 25.9569 32.8125 17.5C32.8125 9.04313 25.9569 2.1875 17.5 2.1875C9.04313 2.1875 2.1875 9.04313 2.1875 17.5C2.1875 25.9569 9.04313 32.8125 17.5 32.8125ZM10.9375 19.6875C10.3573 19.6875 9.80094 19.457 9.3907 19.0468C8.98047 18.6366 8.75 18.0802 8.75 17.5C8.75 16.9198 8.98047 16.3634 9.3907 15.9532C9.80094 15.543 10.3573 15.3125 10.9375 15.3125C11.5177 15.3125 12.0741 15.543 12.4843 15.9532C12.8945 16.3634 13.125 16.9198 13.125 17.5C13.125 18.0802 12.8945 18.6366 12.4843 19.0468C12.0741 19.457 11.5177 19.6875 10.9375 19.6875ZM19.6875 17.5C19.6875 18.0802 19.457 18.6366 19.0468 19.0468C18.6366 19.457 18.0802 19.6875 17.5 19.6875C16.9198 19.6875 16.3634 19.457 15.9532 19.0468C15.543 18.6366 15.3125 18.0802 15.3125 17.5C15.3125 16.9198 15.543 16.3634 15.9532 15.9532C16.3634 15.543 16.9198 15.3125 17.5 15.3125C18.0802 15.3125 18.6366 15.543 19.0468 15.9532C19.457 16.3634 19.6875 16.9198 19.6875 17.5ZM24.0625 19.6875C23.4823 19.6875 22.9259 19.457 22.5157 19.0468C22.1055 18.6366 21.875 18.0802 21.875 17.5C21.875 16.9198 22.1055 16.3634 22.5157 15.9532C22.9259 15.543 23.4823 15.3125 24.0625 15.3125C24.6427 15.3125 25.1991 15.543 25.6093 15.9532C26.0195 16.3634 26.25 16.9198 26.25 17.5C26.25 18.0802 26.0195 18.6366 25.6093 19.0468C25.1991 19.457 24.6427 19.6875 24.0625 19.6875Z" fill="white"/>
</svg>
