<svg width="34" height="20" viewBox="0 0 34 20" fill="none" xmlns="http://www.w3.org/2000/svg">
<path d="M14.875 10C14.875 11.0833 15.0991 12.1172 15.5474 13.1016C15.9956 14.0859 16.6016 14.9375 17.3652 15.6562C18.1289 16.375 19.0337 16.9453 20.0796 17.3672C21.1255 17.7891 22.224 18 23.375 18C24.526 18 25.6245 17.7891 26.6704 17.3672C27.7163 16.9453 28.6211 16.375 29.3848 15.6562C30.1484 14.9375 30.7544 14.0859 31.2026 13.1016C31.6509 12.1172 31.875 11.0833 31.875 10C31.875 8.91667 31.6509 7.88281 31.2026 6.89844C30.7544 5.91406 30.1484 5.0625 29.3848 4.34375C28.6211 3.625 27.7163 3.05469 26.6704 2.63281C25.6245 2.21094 24.526 2 23.375 2C22.224 2 21.1255 2.21094 20.0796 2.63281C19.0337 3.05469 18.1289 3.625 17.3652 4.34375C16.6016 5.0625 15.9956 5.91406 15.5474 6.89844C15.0991 7.88281 14.875 8.91667 14.875 10ZM2.125 10C2.125 11.0833 2.34912 12.1172 2.79736 13.1016C3.24561 14.0859 3.85156 14.9375 4.61523 15.6562C5.37891 16.375 6.28369 16.9453 7.32959 17.3672C8.37549 17.7891 9.47396 18 10.625 18L17.0332 18C15.7161 17.0625 14.673 15.8958 13.9038 14.5C13.1346 13.1042 12.75 11.6042 12.75 10C12.75 8.39583 13.1346 6.89583 13.9038 5.5C14.673 4.10417 15.7161 2.9375 17.0332 2L10.625 2C9.47396 2 8.37549 2.21094 7.32959 2.63281C6.28369 3.05469 5.37891 3.625 4.61524 4.34375C3.85156 5.0625 3.24561 5.91406 2.79736 6.89843C2.34912 7.88281 2.125 8.91666 2.125 10ZM8.74228e-07 10C9.92613e-07 8.64583 0.282228 7.35156 0.846681 6.11718C1.41113 4.88281 2.16651 3.82031 3.11279 2.92968C4.05908 2.03906 5.18799 1.32812 6.49951 0.796873C7.81104 0.265623 9.1862 -2.16929e-06 10.625 -2.04351e-06L23.375 -9.28867e-07C24.8138 -8.03083e-07 26.189 0.265624 27.5005 0.796874C28.812 1.32812 29.9409 2.03906 30.8872 2.92969C31.8335 3.82031 32.5889 4.88281 33.1533 6.11719C33.7178 7.35156 34 8.64583 34 10C34 11.3542 33.7178 12.6484 33.1533 13.8828C32.5889 15.1172 31.8335 16.1797 30.8872 17.0703C29.9409 17.9609 28.812 18.6719 27.5005 19.2031C26.189 19.7344 24.8138 20 23.375 20L10.625 20C9.1862 20 7.81104 19.7344 6.49951 19.2031C5.18799 18.6719 4.05908 17.9609 3.11279 17.0703C2.1665 16.1797 1.41113 15.1172 0.84668 13.8828C0.282227 12.6484 7.55843e-07 11.3542 8.74228e-07 10Z" fill="#F8AF3C"/>
</svg>
