<svg width="18" height="19" viewBox="0 0 18 19" fill="none" xmlns="http://www.w3.org/2000/svg">
<path d="M8.13753 0.469184C8.54236 -0.156384 9.45764 -0.156384 9.86247 0.469184L10.7687 1.86963C11.0329 2.27788 11.5472 2.44497 12.0009 2.26998L13.5573 1.66969C14.2525 1.40155 14.9929 1.93954 14.9528 2.68359L14.8628 4.34926C14.8366 4.83484 15.1544 5.27229 15.6243 5.3974L17.2363 5.82656C17.9563 6.01826 18.2392 6.88875 17.7693 7.46707L16.7175 8.76175C16.4108 9.13918 16.4108 9.6799 16.7175 10.0573L17.7693 11.352C18.2392 11.9303 17.9563 12.8008 17.2363 12.9925L15.6243 13.4217C15.1544 13.5468 14.8366 13.9842 14.8628 14.4698L14.9528 16.1355C14.9929 16.8795 14.2525 17.4175 13.5573 17.1494L12.0009 16.5491C11.5472 16.3741 11.0329 16.5412 10.7687 16.9494L9.86247 18.3499C9.45764 18.9755 8.54236 18.9755 8.13753 18.3499L7.23125 16.9494C6.96706 16.5412 6.4528 16.3741 5.9991 16.5491L4.44274 17.1494C3.74753 17.4175 3.00705 16.8795 3.04724 16.1355L3.13721 14.4698C3.16343 13.9842 2.84561 13.5468 2.37569 13.4217L0.763735 12.9925C0.0436862 12.8008 -0.239151 11.9303 0.2307 11.352L1.28255 10.0573C1.58918 9.6799 1.58918 9.13918 1.28255 8.76175L0.2307 7.46707C-0.239152 6.88875 0.0436864 6.01826 0.763735 5.82656L2.37569 5.3974C2.84561 5.27229 3.16343 4.83484 3.13721 4.34926L3.04724 2.68359C3.00705 1.93954 3.74753 1.40155 4.44274 1.66969L5.9991 2.26998C6.4528 2.44497 6.96706 2.27788 7.23125 1.86963L8.13753 0.469184Z" fill="#0ECC8D"/>
</svg>
