<svg width="81" height="65" viewBox="0 0 81 65" fill="none" xmlns="http://www.w3.org/2000/svg">
<path d="M31.9001 4.375H30.9001V5.375V7.94875C29.8392 7.50974 28.6998 7.21394 27.5001 7.10697V4.16479C27.5001 2.39431 28.8952 1 30.5501 1H62.95C64.6049 1 66 2.39431 66 4.16479V30.7727C66 32.5432 64.6049 33.9375 62.95 33.9375H43.0615C42.6501 32.7064 42.0411 31.5708 41.2711 30.5625H45.4001H46.4001V29.5625V25.1875H55.2V29.5625V30.5625H56.2H61.6H62.6V29.5625V5.375V4.375H61.6H31.9001ZM26.5001 31.2344C27.8371 31.2344 29.0922 30.9838 30.2618 30.6056L30.2621 30.6055C30.3479 30.5779 30.4451 30.5625 30.5501 30.5625C35.2366 30.5625 39.0249 34.3557 39.0001 39.0155C38.9913 40.6566 37.6306 42 35.9501 42H17.0501C15.3696 42 14.0089 40.6566 14.0001 39.0155C13.9753 34.3557 17.7636 30.5625 22.4501 30.5625C22.5548 30.5625 22.6513 30.5778 22.7375 30.6056C23.9078 30.9837 25.1629 31.2344 26.5001 31.2344ZM33.6001 18.8125C33.6001 22.7087 30.4257 25.875 26.5001 25.875C22.5745 25.875 19.4001 22.7087 19.4001 18.8125C19.4001 14.9163 22.5745 11.75 26.5001 11.75C30.4257 11.75 33.6001 14.9163 33.6001 18.8125Z" fill="#27295B" stroke="#27295B" stroke-width="2"/>
</svg>
