<svg width="35" height="30" viewBox="0 0 35 30" fill="none" xmlns="http://www.w3.org/2000/svg">
<g clip-path="url(#clip0_109_278)">
<path fill-rule="evenodd" clip-rule="evenodd" d="M0 9.375C0 8.38044 0.460936 7.42661 1.28141 6.72335C2.10188 6.02009 3.21468 5.625 4.375 5.625H20.7812C21.8424 5.62489 22.8674 5.95536 23.6654 6.55486C24.4634 7.15437 24.9801 7.98204 25.1191 8.88375L31.9222 6.2925C32.2552 6.16532 32.62 6.11149 32.9834 6.13591C33.3469 6.16033 33.6974 6.26221 34.0032 6.4323C34.3091 6.6024 34.5604 6.83531 34.7345 7.10986C34.9086 7.38441 34.9998 7.6919 35 8.00437V21.9956C34.9997 22.3079 34.9084 22.6151 34.7344 22.8894C34.5605 23.1637 34.3093 23.3965 34.0038 23.5665C33.6983 23.7366 33.3481 23.8385 32.985 23.8631C32.6218 23.8878 32.2573 23.8343 31.9244 23.7075L25.1191 21.1163C24.9801 22.018 24.4634 22.8456 23.6654 23.4451C22.8674 24.0446 21.8424 24.3751 20.7812 24.375H4.375C3.21468 24.375 2.10188 23.9799 1.28141 23.2766C0.460936 22.5734 0 21.6196 0 20.625L0 9.375Z" fill="white"/>
</g>
<defs>
<clipPath id="clip0_109_278">
<rect width="35" height="30" fill="white"/>
</clipPath>
</defs>
</svg>
