<svg width="21" height="23" viewBox="0 0 21 23" fill="none" xmlns="http://www.w3.org/2000/svg">
<path d="M20.6366 19.1155L16.3906 14.4959C15.5009 13.528 13.9737 13.5277 13.0837 14.4953C12.293 15.3549 12.293 16.677 13.0837 17.5366L17.5884 22.434C18.0729 22.9607 18.8703 22.9607 19.3548 22.434L20.6366 21.0404C21.1211 20.5091 21.1211 19.6375 20.6366 19.1155Z" fill="#B7B7B7"/>
<path d="M10.9519 13.6434C11.4182 14.1502 12.2181 14.1502 12.6844 13.6434C13.0987 13.1929 13.0987 12.5002 12.6844 12.0498L12.4253 11.7681C11.936 11.2362 11.8839 10.4472 12.1619 9.77996C13.2245 7.22923 12.7946 4.12025 10.8664 2.02399C8.38412 -0.674664 4.34988 -0.674664 1.86332 2.02399C-0.623249 4.72265 -0.618961 9.10854 1.86332 11.8119C3.77932 13.8949 6.61512 14.3696 8.9529 13.242C9.57853 12.9402 10.3548 12.9941 10.825 13.5054L10.9519 13.6434ZM3.09802 10.4509C1.29741 8.49331 1.29741 5.31924 3.09802 3.36633C4.89864 1.40875 7.81821 1.40875 9.61454 3.36633C11.4152 5.3239 11.4152 8.49797 9.61454 10.4509C7.81821 12.4085 4.89864 12.4085 3.09802 10.4509Z" fill="#B7B7B7"/>
</svg>
