<svg width="30" height="30" viewBox="0 0 30 30" fill="none" xmlns="http://www.w3.org/2000/svg">
<path d="M18.3375 4.93125L17.4 7.29375C17.2648 7.63336 17.2318 8.00508 17.3051 8.36319C17.3784 8.7213 17.5548 9.05018 17.8125 9.30938L19.7437 11.25C19.5451 13.0988 18.7973 14.8457 17.5969 16.2656L3.19688 1.875L1.875 3.19687L26.8031 28.125L28.125 26.8031L20.7 19.3687C23.625 16.3313 25.8563 11.9719 26.25 5.72813C26.264 5.47336 26.2259 5.21841 26.138 4.97888C26.0501 4.73936 25.9142 4.5203 25.7387 4.33512C25.5631 4.14994 25.3517 4.00253 25.1172 3.90192C24.8827 3.80131 24.6302 3.74961 24.375 3.75H20.0719C19.698 3.75151 19.333 3.86479 19.024 4.07528C18.7149 4.28577 18.4758 4.58386 18.3375 4.93125Z" fill="white"/>
<path d="M17.0532 22.3593L13.7532 19.0593C12.9525 19.4148 12.1122 19.6729 11.25 19.8281L9.30941 17.8875C9.05022 17.6297 8.72134 17.4534 8.36323 17.3801C8.00512 17.3068 7.63339 17.3398 7.29378 17.475L4.93128 18.4125C4.58241 18.5514 4.2833 18.7919 4.07269 19.1028C3.86207 19.4137 3.74967 19.7807 3.75003 20.1562L3.75003 24.375C3.74843 24.6396 3.80284 24.9015 3.90969 25.1435C4.01654 25.3856 4.17342 25.6023 4.37 25.7794C4.56658 25.9565 4.79842 26.09 5.05027 26.1711C5.30213 26.2522 5.5683 26.2791 5.83128 26.25C9.81293 25.796 13.645 24.4674 17.0532 22.3593Z" fill="white"/>
</svg>
