<svg width="35" height="35" viewBox="0 0 35 35" fill="none" xmlns="http://www.w3.org/2000/svg">
<path d="M17.4998 23.3333C20.7169 23.3333 23.3332 20.7171 23.3332 17.5V8.75001C23.3332 5.51688 20.73 2.88605 17.5305 2.88605C17.4278 2.88666 17.3256 2.89889 17.2257 2.92251C15.7283 2.9951 14.3162 3.64052 13.2814 4.72523C12.2467 5.80993 11.6685 7.2509 11.6665 8.75001V17.5C11.6665 20.7171 14.2828 23.3333 17.4998 23.3333Z" fill="white"/>
<path d="M16.0418 29.066V32.0833H18.9585V29.066C24.7029 28.3442 29.1668 23.4398 29.1668 17.5H26.2502C26.2502 22.3256 22.3258 26.25 17.5002 26.25C12.6745 26.25 8.75016 22.3256 8.75016 17.5H5.8335C5.8335 23.4383 10.2975 28.3442 16.0418 29.066Z" fill="white"/>
</svg>
